<?xml version="1.0" standalone="no"?>
<!DOCTYPE svg PUBLIC "-//W3C//DTD SVG 20010904//EN"
 "http://www.w3.org/TR/2001/REC-SVG-20010904/DTD/svg10.dtd">
<svg version="1.0" xmlns="http://www.w3.org/2000/svg"
 width="128.000000pt" height="128.000000pt" viewBox="0 0 128.000000 128.000000"
 preserveAspectRatio="xMidYMid meet">
<metadata>
Created by MERN Architect // JstMeJosh
</metadata>
<g transform="translate(0.000000,128.000000) scale(0.100000,-0.100000)"
fill="#22d3ee" stroke="none">
<path d="M501 1145 c-207 -47 -384 -209 -452 -412 -58 -174 -26 -374 81 -518 78 -105 168 -168 290 -203 76 -22 232 -26 310 -8 241 57 433 246 488 481 54 227 -31 465 -212 597 -121 88 -335 111 -505 73z m439 -174 c139 -67 236 -195 264 -349 14 -73 14 -199 0 -272 -25 -136 -103 -258 -212 -332 -76 -53 -184 -88 -287 -95 -86 -5 -121 -2 -175 14 -126 38 -233 133 -294 260 -36 75 -47 119 -50 203 -3 103 8 156 50 231 66 119 193 216 331 254 77 20 181 16 287 -30 z"
fill="#22d3ee"/>
<path d="M570 944 c-85 -18 -165 -65 -227 -133 -116 -126 -162 -301 -127 -486 16 -85 53 -165 116 -249 20 -28 20 -28 3 -3 -68 104 -103 216 -103 332 0 110 32 216 93 306 43 65 92 110 162 150 17 9 20 17 12 30 -5 9 -16 19 -29 23 z"
fill="#10b981"/> <path d="M684 946 c18 -4 44 -17 59 -31 22 -19 22 -20 22 -125 0 -99 1 -107 19 -120 19 -15 28 -14 43 5 13 18 13 23 2 48 -22 51 -21 72 3 108 24 35 48 49 84 49 33 0 46 -3 71 -18 35 -20 63 -53 79 -93 25 -60 25 -154 0 -214 -16 -40 -44 -73 -79 -93 -25 -15 -38 -18 -71 -18 -36 0 -60 14 -84 49 -24 36 -25 57 -3 108 11 25 11 30 -2 48 -15 19 -24 20 -43 5 -18 -13 -19 -21 -19 -120 0 -105 0 -106 -22 -125 -15 -14 -41 -27 -59 -31 z m140 -266 c13 13 47 -2 58 -25 8 -17 8 -41 0 -58 -16 -32 -66 -22 -75 14 -7 28 0 54 17 69 z"
fill="#a855f7"/> </g>
</svg>
